<svg width="42" height="43" viewBox="0 0 42 43" fill="none" xmlns="http://www.w3.org/2000/svg">
<path d="M15.75 21.7383L19.25 25.2383L26.25 18.2383M36.75 21.7383C36.75 23.8066 36.3426 25.8547 35.5511 27.7655C34.7596 29.6764 33.5995 31.4127 32.1369 32.8752C30.6744 34.3377 28.9381 35.4979 27.0273 36.2894C25.1164 37.0809 23.0683 37.4883 21 37.4883C18.9317 37.4883 16.8836 37.0809 14.9727 36.2894C13.0619 35.4979 11.3256 34.3377 9.86307 32.8752C8.40055 31.4127 7.24041 29.6764 6.4489 27.7655C5.65739 25.8547 5.25 23.8066 5.25 21.7383C5.25 17.5611 6.90937 13.555 9.86307 10.6013C12.8168 7.64765 16.8228 5.98828 21 5.98828C25.1772 5.98828 29.1832 7.64765 32.1369 10.6013C35.0906 13.555 36.75 17.5611 36.75 21.7383Z" stroke="#058592" stroke-width="2.04493" stroke-linecap="round" stroke-linejoin="round"/>
<path d="M41 21.2383C41 32.0078 32.2696 40.7383 21.5 40.7383C10.7304 40.7383 2 32.0078 2 21.2383C2 10.4687 10.7304 1.73828 21.5 1.73828C32.2696 1.73828 41 10.4687 41 21.2383Z" fill="#05ADA6" fill-opacity="0.24"/>
</svg>
