<svg width="43" height="44" viewBox="0 0 43 44" fill="none" xmlns="http://www.w3.org/2000/svg">
<circle cx="21.5" cy="23.2383" r="19.5" fill="#979595" fill-opacity="0.35"/>
<path d="M17.9167 25.8216L21.5 22.2383M21.5 22.2383L25.0833 18.6549M21.5 22.2383L17.9167 18.6549M21.5 22.2383L25.0833 25.8216M37.625 22.2383C37.625 24.3558 37.2079 26.4527 36.3976 28.4091C35.5872 30.3654 34.3994 32.143 32.9021 33.6404C31.4048 35.1377 29.6271 36.3255 27.6708 37.1358C25.7144 37.9462 23.6176 38.3633 21.5 38.3633C19.3824 38.3633 17.2856 37.9462 15.3292 37.1358C13.3729 36.3255 11.5952 35.1377 10.0979 33.6404C8.60056 32.143 7.4128 30.3654 6.60244 28.4091C5.79209 26.4527 5.375 24.3558 5.375 22.2383C5.375 17.9617 7.07388 13.8602 10.0979 10.8362C13.1219 7.81216 17.2234 6.11328 21.5 6.11328C25.7766 6.11328 29.8781 7.81216 32.9021 10.8362C35.9261 13.8602 37.625 17.9617 37.625 22.2383Z" stroke="black" stroke-width="2.04493" stroke-linecap="round" stroke-linejoin="round"/>
</svg>
