<svg width="24" height="24" viewBox="0 0 24 24" fill="none" xmlns="http://www.w3.org/2000/svg">
<path d="M13.8281 10.172C13.078 9.42216 12.0607 9.0009 11.0001 9.0009C9.93942 9.0009 8.92219 9.42216 8.17208 10.172L4.17208 14.172C3.79004 14.541 3.48531 14.9824 3.27567 15.4704C3.06604 15.9584 2.95569 16.4833 2.95108 17.0144C2.94646 17.5456 3.04767 18.0723 3.24879 18.5639C3.44992 19.0554 3.74693 19.502 4.1225 19.8776C4.49807 20.2532 4.94468 20.5502 5.43626 20.7513C5.92785 20.9525 6.45457 21.0537 6.98568 21.049C7.5168 21.0444 8.04168 20.9341 8.5297 20.7244C9.01771 20.5148 9.45909 20.2101 9.82808 19.828L10.9301 18.727M10.1721 13.828C10.9222 14.5779 11.9394 14.9992 13.0001 14.9992C14.0607 14.9992 15.078 14.5779 15.8281 13.828L19.8281 9.82804C20.5567 9.07363 20.9599 8.06322 20.9508 7.01444C20.9417 5.96565 20.521 4.9624 19.7794 4.22077C19.0377 3.47913 18.0345 3.05846 16.9857 3.04935C15.9369 3.04023 14.9265 3.44341 14.1721 4.17204L13.0721 5.27204" stroke="#525559" stroke-width="2.04493" stroke-linecap="round" stroke-linejoin="round"/>
</svg>
